<?xml version="1.0" encoding="UTF-8"?>
<svg id="Layer_2" data-name="Layer 2" xmlns="http://www.w3.org/2000/svg" xmlns:xlink="http://www.w3.org/1999/xlink" viewBox="0 0 296.25 302.25">
  <defs>
    <style>
      .cls-1 {
        fill: #334d2b;
      }

      .cls-2 {
        clip-path: url(#clippath-34);
      }

      .cls-3 {
        clip-path: url(#clippath-21);
      }

      .cls-4 {
        clip-path: url(#clippath-6);
      }

      .cls-5 {
        clip-path: url(#clippath-7);
      }

      .cls-6 {
        clip-path: url(#clippath-17);
      }

      .cls-7, .cls-8, .cls-9, .cls-10, .cls-11, .cls-12 {
        fill: #7da12d;
      }

      .cls-13 {
        clip-path: url(#clippath-31);
      }

      .cls-14 {
        clip-path: url(#clippath-15);
      }

      .cls-15 {
        clip-path: url(#clippath-33);
      }

      .cls-16 {
        clip-path: url(#clippath-18);
      }

      .cls-17 {
        clip-path: url(#clippath-4);
      }

      .cls-18 {
        clip-path: url(#clippath-22);
      }

      .cls-19 {
        clip-path: url(#clippath-23);
      }

      .cls-20 {
        clip-path: url(#clippath-9);
      }

      .cls-21 {
        clip-path: url(#clippath-10);
      }

      .cls-22 {
        clip-path: url(#clippath-25);
      }

      .cls-23 {
        clip-path: url(#clippath-27);
      }

      .cls-24 {
        clip-path: url(#clippath-11);
      }

      .cls-25 {
        fill: none;
      }

      .cls-26 {
        clip-path: url(#clippath-35);
      }

      .cls-27 {
        clip-path: url(#clippath-28);
      }

      .cls-28 {
        fill: #51644b;
      }

      .cls-29 {
        clip-path: url(#clippath-1);
      }

      .cls-30 {
        isolation: isolate;
      }

      .cls-31 {
        clip-path: url(#clippath-5);
      }

      .cls-32 {
        clip-path: url(#clippath-20);
      }

      .cls-33 {
        clip-path: url(#clippath-8);
      }

      .cls-34 {
        clip-path: url(#clippath-3);
      }

      .cls-35 {
        clip-path: url(#clippath-26);
      }

      .cls-36 {
        opacity: 0;
      }

      .cls-37 {
        clip-path: url(#clippath-12);
      }

      .cls-8 {
        fill-rule: evenodd;
      }

      .cls-38 {
        clip-path: url(#clippath-14);
      }

      .cls-9 {
        font-size: 33px;
      }

      .cls-9, .cls-10, .cls-11, .cls-12 {
        font-family: Prompt-ExtraBold, Prompt;
        font-weight: 700;
      }

      .cls-39 {
        clip-path: url(#clippath-30);
      }

      .cls-40 {
        clip-path: url(#clippath-19);
      }

      .cls-41 {
        clip-path: url(#clippath-32);
      }

      .cls-10 {
        font-size: 33px;
      }

      .cls-11 {
        font-size: 37px;
      }

      .cls-42 {
        fill: #eeeae0;
      }

      .cls-43 {
        clip-path: url(#clippath-16);
      }

      .cls-44 {
        clip-path: url(#clippath-2);
      }

      .cls-45 {
        clip-path: url(#clippath-29);
      }

      .cls-12 {
        font-size: 37px;
      }

      .cls-46 {
        clip-path: url(#clippath-13);
      }

      .cls-47 {
        clip-path: url(#clippath-24);
      }

      .cls-48 {
        clip-path: url(#clippath);
      }
    </style>
    <clipPath id="clippath">
      <rect class="cls-25" y="5.99" width="296.25" height="296.25"/>
    </clipPath>
    <clipPath id="clippath-1">
      <rect class="cls-25" x="7.82" y="13.8" width="280.5" height="280.5"/>
    </clipPath>
    <clipPath id="clippath-2">
      <rect class="cls-25" x="79.19" y="86.05" width="138" height="138.75"/>
    </clipPath>
    <clipPath id="clippath-3">
      <rect class="cls-25" x="25.53" y="105.98" width="36.84" height="96.16"/>
    </clipPath>
    <clipPath id="clippath-4">
      <rect class="cls-25" x="25.44" y="105.84" width="36.96" height="96.48"/>
    </clipPath>
    <clipPath id="clippath-5">
      <rect class="cls-25" width="296.25" height="302.25"/>
    </clipPath>
    <clipPath id="clippath-6">
      <rect class="cls-25" x="233.46" y="105.98" width="36.84" height="96.16"/>
    </clipPath>
    <clipPath id="clippath-7">
      <rect class="cls-25" x="233.28" y="105.84" width="37.2" height="96.48"/>
    </clipPath>
    <clipPath id="clippath-8">
      <rect class="cls-25" width="296.25" height="302.25"/>
    </clipPath>
    <clipPath id="clippath-9">
      <rect class="cls-25" width="296.25" height="302.25"/>
    </clipPath>
    <clipPath id="clippath-10">
      <rect class="cls-25" width="296.25" height="302.25"/>
    </clipPath>
    <clipPath id="clippath-11">
      <rect class="cls-25" x="232.49" y="111.97" width="36.75" height="84" transform="translate(-3.87 6.5) rotate(-1.47)"/>
    </clipPath>
    <clipPath id="clippath-12">
      <rect class="cls-25" x="232.49" y="111.97" width="36.75" height="84" transform="translate(-3.87 6.5) rotate(-1.47)"/>
    </clipPath>
    <clipPath id="clippath-13">
      <rect class="cls-25" x="25.96" y="127.95" width="36.75" height="84"/>
    </clipPath>
    <clipPath id="clippath-14">
      <rect class="cls-25" x="25.92" y="127.92" width="36.72" height="84.24"/>
    </clipPath>
    <clipPath id="clippath-15">
      <rect class="cls-25" x="25.93" y="127.95" width="36.75" height="84"/>
    </clipPath>
    <clipPath id="clippath-16">
      <rect class="cls-25" width="296.25" height="302.25"/>
    </clipPath>
    <clipPath id="clippath-17">
      <rect class="cls-25" width="296.25" height="302.25"/>
    </clipPath>
    <clipPath id="clippath-18">
      <rect class="cls-25" x="230.02" y="103.13" width="20.05" height="7.98"/>
    </clipPath>
    <clipPath id="clippath-19">
      <path class="cls-25" d="M233.2,108.91c8.18-2.18,13.05-5.47,14.55-5.62.45,0,.75.07.97.3.15.23.3.67.08.98-.98,1.42-13.73,4.35-16.28,4.35-.82,0-1.43-.15-1.57-.45-.15-.3-.07-.98.3-1.35.9-.82,6.45-2.17,7.05-1.73.22.15.22.6,0,.83-.38.45-3.3.67-3.83.3-.3-.22-.38-.9-.22-1.12.15-.15.45-.15.82-.22.52-.07,1.8-.15,2.32.15.45.3.9,1.05.75,1.57-.22.83-3.45,2.78-4.2,2.55-.45-.08-.9-.98-.68-1.35.38-.75,4.88-.3,7.12-.98,2.32-.6,5.1-2.4,6.68-2.7.82-.15,1.5-.22,1.95,0s.98.82.98,1.2c.07.38-.07.6-.38.9-.9.9-4.43,2.33-7.12,3.08-3.23.9-9.23,1.73-11.1,1.42-.68-.15-1.2-.38-1.27-.67-.15-.3.15-.75.6-1.12,1.5-1.27,9.53-3.23,12.38-3.83,1.43-.3,2.7-.75,3.3-.45.3.22.53.97.38,1.2-.07.3-.68.6-.9.45-.3-.08-.75-1.12-.6-1.27.15-.23,1.5-.08,1.57.22.15.22-.15.68-.6,1.05-1.73,1.35-13.43,4.73-15.3,4.27-.52-.07-.82-.45-.9-.75,0-.3.22-.67.67-.9,1.43-.9,8.18-.38,11.4-1.27,2.47-.6,6.3-2.78,6.3-2.78.07.07-5.33,3.07-7.95,3.75-2.17.6-6.45.75-6.52.53,0-.08.75-.3.75-.38-.07-.08-1.12.38-1.35.15-.22-.15-.3-.75-.07-1.12.3-.68,3.3-2.02,3.45-1.8.08.07-.07.53-.38.68-.45.23-2.25.23-2.7-.23-.45-.3-.68-1.42-.45-1.73.15-.3.68-.22,1.27-.3.98-.08,3.6-.45,4.43.07.6.3,1.12,1.12.98,1.65-.45,1.05-6.9,2.7-8.18,2.4-.52-.15-.9-.52-.9-.83-.08-.3.3-.75.67-.97.75-.38,2.4.07,4.05-.22,3-.53,10.05-4.05,12-3.6.75.15,1.43.67,1.35,1.2-.15,1.2-7.35,4.05-10.28,5.03-2.02.67-4.5,1.27-5.4.97-.38-.15-.68-.53-.68-.75s.68-.75.68-.75"/>
    </clipPath>
    <clipPath id="clippath-20">
      <rect class="cls-25" x="229.92" y="102.96" width="20.16" height="8.16"/>
    </clipPath>
    <clipPath id="clippath-21">
      <rect class="cls-25" width="296.25" height="302.25"/>
    </clipPath>
    <clipPath id="clippath-22">
      <rect class="cls-25" width="296.25" height="302.25"/>
    </clipPath>
    <clipPath id="clippath-23">
      <rect class="cls-25" x="228.77" y="106.5" width="22.25" height="7.05"/>
    </clipPath>
    <clipPath id="clippath-24">
      <path class="cls-25" d="M232.53,111.69c14.78-2.93,17.55-4.57,17.55-4.57,0,0-5.85,3.07-9.07,4.12-3.45,1.12-9.45,2.1-11.1,2.25-.52,0-.82.07-.97-.08-.15-.15-.15-.45.07-.67,1.05-1.2,14.4-4.73,17.7-4.95,1.27-.07,2.55.08,2.62.3,0,.6-8.4,2.78-12.07,3.6-2.93.68-7.28,1.88-8.03,1.35-.3-.15-.22-.75-.15-.75l.3.75s-.38-.52-.23-.75c.53-.9,7.43-1.2,10.73-2.17,2.93-.83,6.45-2.93,8.18-3,.82,0,1.72.22,1.88.52.07.23-.15.6-.6.9-1.95,1.35-20.55,4.5-20.55,4.5,0,0,7.88-1.35,11.4-2.47,3.38-1.05,7.65-3.9,9.38-4.05.67,0,1.27.15,1.42.45.08.15-.07.38-.3.6-.45.6-1.8,1.43-3.38,2.1-2.62,1.12-9.23,2.48-11.85,2.78-1.35.15-2.7.3-3,0-.15-.15.07-.75.07-.75"/>
    </clipPath>
    <clipPath id="clippath-25">
      <rect class="cls-25" x="228.72" y="106.32" width="22.32" height="7.44"/>
    </clipPath>
    <clipPath id="clippath-26">
      <rect class="cls-25" width="296.25" height="302.25"/>
    </clipPath>
    <clipPath id="clippath-27">
      <rect class="cls-25" width="296.25" height="302.25"/>
    </clipPath>
    <clipPath id="clippath-28">
      <rect class="cls-25" x="221.05" y="96.08" width="34.33" height="19.06"/>
    </clipPath>
    <clipPath id="clippath-29">
      <path class="cls-25" d="M231.03,111.39c8.85-1.5,17.25-4.8,19.12-4.95.45,0,.82,0,.9.15.07.07,0,.45-.23.6-.45.38-1.73-.23-3.23.07-4.05.68-19.5,7.73-21.75,7.43-.38-.08-.67-.53-.67-.45l.6.45s-.6-.3-.6-.45c0-.3.45-.67.82-1.05.68-.68,1.5-1.5,3.15-2.25,3.9-1.8,18.53-5.1,21.9-5.55,1.05-.15,1.72-.3,2.02-.07.15.22.23.6.07.82-.3.38-1.8.08-2.93.45-1.8.6-4.35,3.07-6.52,3.75-1.95.6-3.52,0-5.85.38-3.38.52-9.45,2.77-12.45,3.52-1.65.38-3.22,1.05-3.9.75-.23-.07-.38-.3-.38-.52.07-.52,1.57-1.8,2.47-2.33.83-.52,1.73-.67,2.85-.9,1.65-.3,3.9,0,6-.3,2.25-.38,5.25-1.65,6.9-1.65.9,0,2.03.15,2.1.45,0,.75-14.02,4.5-16.57,4.88-.82.08-1.35.15-1.57-.07-.15-.15-.23-.45-.08-.68.3-.6,2.25-1.2,4.35-1.73,4.5-1.2,18.6-1.95,22.57-3.3,1.5-.52,2.18-.98,3-1.65.6-.6,1.57-1.5,1.43-2.03-.23-.75-4.8-1.65-4.95-1.35-.15.22,1.65,1.2,2.1,1.95.53.75,1.12,2.4.98,2.55-.23.15-2.93-2.33-3.3-3.45-.3-.67-.22-1.8.07-1.95.15-.15.6,0,.83.22.67.68,1.88,5.18,1.42,5.62-.15.15-.6,0-.9-.22-.68-.45-1.43-1.95-1.88-3.45-.6-2.25-.9-8.85-.52-8.93.22,0,1.5,3.38,1.65,4.88.15,1.35-.6,2.47-.45,3.68.22,1.2,1.43,3.52,1.5,3.52.15-.07-.98-4.8-1.05-4.8-.07.07-.15.82,0,1.27.38.9,2.85,2.7,2.77,3.23-.07.22-.52.38-.82.3-.68-.3-2.93-4.35-2.4-4.95.45-.68,5.1.3,5.62,1.2.3.68-.45,1.95-1.05,2.77-.68.83-1.88,1.43-3,1.95-1.27.6-2.32.9-4.27,1.27-3.6.75-11.85.75-16.12,1.73-3,.6-6.53,2.77-7.35,2.4-.23-.15-.3-.6-.15-.82.45-.82,4.88-1.57,7.5-2.32,2.92-.83,7.72-2.62,9.3-2.4.68.15,1.28.6,1.2.82-.15.83-11.1.98-14.7,2.18-2.25.75-4.88,3.15-5.25,2.92-.15-.07-.15-.52.08-.82.97-1.05,9.07-2.78,13.12-3.6,3.38-.6,6.6-.15,9.45-1.05,2.62-.9,5.55-3.75,7.27-4.2.75-.15,1.65-.15,1.88.07.15.15.15.53-.07.83-1.35,1.5-19.27,3.38-23.62,5.48-1.95.97-3,3-3.68,3-.3,0-.6-.3-.6-.45,0-.23.3-.38.67-.6,1.05-.6,3.68-1.57,6.23-2.47,4.05-1.43,12.6-4.28,15.75-4.8,1.35-.15,2.55-.3,3,.08.15.15.3.45.07.75-.6.97-7.8,2.55-11.18,3.38-2.77.67-6.22,1.5-7.72,1.57-.6.08-1.12.08-1.2-.07-.15-.15.22-.68.22-.68"/>
    </clipPath>
    <clipPath id="clippath-30">
      <rect class="cls-25" x="221.04" y="96" width="34.56" height="19.2"/>
    </clipPath>
    <clipPath id="clippath-31">
      <rect class="cls-25" width="296.25" height="302.25"/>
    </clipPath>
    <clipPath id="clippath-32">
      <rect class="cls-25" width="296.25" height="302.25"/>
    </clipPath>
    <clipPath id="clippath-33">
      <rect class="cls-25" x="220.95" y="109.51" width="18.19" height="5.85"/>
    </clipPath>
    <clipPath id="clippath-34">
      <path class="cls-25" d="M225.25,112.44c10.8-2.7,13.8-3,13.88-2.78.07.53-10.65,4.57-13.95,5.25-1.8.38-4.05.6-4.2.22-.15-.38,2.78-2.1,4.73-2.92,2.77-1.12,10.5-2.7,10.65-2.25.15.3-5.32,2.85-7.05,3.52-.98.45-1.95.98-2.33.75-.22-.07-.22-.75-.22-.75l.3.75s-.38-.45-.23-.75c.52-1.05,8.77-4.35,9.9-3.9.3.15.53.6.45.82-.15.3-1.12.45-2.1.75-2.1.6-7.73,1.35-10.12,2.25-1.43.53-3.3,1.65-3.23,1.8.15.38,17.48-5.33,17.4-5.55-.07-.07-12.68,4.12-13.73,3.53-.22-.15-.15-.75-.15-.75"/>
    </clipPath>
    <clipPath id="clippath-35">
      <rect class="cls-25" x="220.8" y="109.44" width="18.48" height="6"/>
    </clipPath>
  </defs>
  <g id="Layer_1-2" data-name="Layer 1">
    <g>
      <g class="cls-48">
        <path class="cls-42" d="M296.16,154.06c0,2.42-.06,4.85-.18,7.27-.12,2.42-.3,4.84-.53,7.25-.24,2.41-.53,4.82-.89,7.21s-.77,4.78-1.24,7.16c-.47,2.38-1,4.74-1.59,7.09-.59,2.35-1.24,4.69-1.94,7-.7,2.32-1.46,4.62-2.28,6.9-.82,2.28-1.69,4.54-2.62,6.78-.93,2.24-1.91,4.45-2.95,6.64-1.04,2.19-2.13,4.35-3.27,6.49-1.14,2.14-2.34,4.25-3.58,6.32-1.25,2.08-2.54,4.13-3.89,6.14s-2.74,4-4.18,5.94c-1.44,1.95-2.93,3.86-4.47,5.73-1.54,1.87-3.12,3.71-4.75,5.5-1.63,1.8-3.3,3.55-5.01,5.26s-3.47,3.38-5.26,5.01-3.63,3.21-5.5,4.75c-1.87,1.54-3.78,3.03-5.73,4.47-1.95,1.44-3.93,2.84-5.94,4.18-2.01,1.35-4.06,2.64-6.14,3.89s-4.19,2.44-6.32,3.58c-2.14,1.14-4.3,2.23-6.49,3.27-2.19,1.04-4.41,2.02-6.64,2.95-2.24.93-4.5,1.8-6.78,2.62-2.28.82-4.58,1.58-6.9,2.28-2.32.7-4.65,1.35-7,1.94-2.35.59-4.71,1.12-7.09,1.59-2.38.47-4.76.89-7.16,1.24-2.4.36-4.8.65-7.21.89-2.41.24-4.83.42-7.25.53-2.42.12-4.84.18-7.27.18s-4.85-.06-7.27-.18c-2.42-.12-4.84-.3-7.25-.53s-4.82-.53-7.21-.89c-2.4-.36-4.78-.77-7.16-1.24-2.38-.47-4.74-1-7.09-1.59-2.35-.59-4.69-1.23-7-1.94-2.32-.7-4.62-1.46-6.9-2.28-2.28-.82-4.54-1.69-6.78-2.62-2.24-.93-4.45-1.91-6.64-2.95-2.19-1.04-4.35-2.13-6.49-3.27-2.14-1.14-4.25-2.34-6.32-3.58-2.08-1.25-4.13-2.54-6.14-3.89-2.01-1.35-4-2.74-5.94-4.18-1.95-1.44-3.86-2.93-5.73-4.47s-3.71-3.12-5.5-4.75c-1.8-1.63-3.55-3.3-5.26-5.01-1.71-1.71-3.38-3.47-5.01-5.26-1.63-1.8-3.21-3.63-4.75-5.5-1.54-1.87-3.03-3.78-4.47-5.73-1.44-1.95-2.84-3.93-4.18-5.94-1.35-2.01-2.64-4.06-3.89-6.14-1.25-2.08-2.44-4.19-3.58-6.32-1.14-2.14-2.23-4.3-3.27-6.49-1.04-2.19-2.02-4.41-2.95-6.64-.93-2.24-1.8-4.5-2.62-6.78-.82-2.28-1.58-4.58-2.28-6.9-.7-2.32-1.35-4.65-1.94-7-.59-2.35-1.12-4.71-1.59-7.09-.47-2.38-.89-4.76-1.24-7.16-.36-2.4-.65-4.8-.89-7.21-.24-2.41-.42-4.83-.53-7.25C.06,158.91,0,156.49,0,154.06c0-2.42.06-4.85.18-7.27.12-2.42.3-4.84.53-7.25s.53-4.82.89-7.21c.36-2.4.77-4.78,1.24-7.16.47-2.38,1-4.74,1.59-7.09.59-2.35,1.24-4.69,1.94-7,.7-2.32,1.46-4.62,2.28-6.9.82-2.28,1.69-4.54,2.62-6.78.93-2.24,1.91-4.45,2.95-6.64,1.04-2.19,2.13-4.35,3.27-6.49,1.14-2.14,2.34-4.25,3.58-6.32,1.25-2.08,2.54-4.13,3.89-6.14,1.35-2.01,2.74-4,4.18-5.94,1.44-1.95,2.93-3.86,4.47-5.73,1.54-1.87,3.12-3.71,4.75-5.5,1.63-1.8,3.3-3.55,5.01-5.26,1.71-1.71,3.47-3.38,5.26-5.01,1.8-1.63,3.63-3.21,5.5-4.75,1.87-1.54,3.78-3.03,5.73-4.47,1.95-1.44,3.93-2.84,5.94-4.18,2.01-1.35,4.06-2.64,6.14-3.89s4.19-2.44,6.32-3.58c2.14-1.14,4.3-2.23,6.49-3.27,2.19-1.04,4.41-2.02,6.64-2.95,2.24-.93,4.5-1.8,6.78-2.62,2.28-.82,4.58-1.58,6.9-2.28,2.32-.7,4.65-1.35,7-1.94,2.35-.59,4.71-1.12,7.09-1.59,2.38-.47,4.76-.89,7.16-1.24,2.4-.36,4.8-.65,7.21-.89,2.41-.24,4.83-.42,7.25-.53,2.42-.12,4.84-.18,7.27-.18s4.85.06,7.27.18c2.42.12,4.84.3,7.25.53,2.41.24,4.82.53,7.21.89s4.78.77,7.16,1.24c2.38.47,4.74,1,7.09,1.59,2.35.59,4.69,1.24,7,1.94,2.32.7,4.62,1.46,6.9,2.28,2.28.82,4.54,1.69,6.78,2.62,2.24.93,4.45,1.91,6.64,2.95,2.19,1.04,4.35,2.13,6.49,3.27,2.14,1.14,4.25,2.34,6.32,3.58s4.13,2.54,6.14,3.89,4,2.74,5.94,4.18c1.95,1.44,3.86,2.93,5.73,4.47,1.87,1.54,3.71,3.12,5.5,4.75,1.8,1.63,3.55,3.3,5.26,5.01,1.71,1.71,3.38,3.47,5.01,5.26,1.63,1.8,3.21,3.63,4.75,5.5,1.54,1.87,3.03,3.78,4.47,5.73,1.44,1.95,2.84,3.93,4.18,5.94,1.35,2.01,2.64,4.06,3.89,6.14,1.25,2.08,2.44,4.19,3.58,6.32,1.14,2.14,2.23,4.3,3.27,6.49s2.02,4.41,2.95,6.64c.93,2.24,1.8,4.5,2.62,6.78.82,2.28,1.58,4.58,2.28,6.9.7,2.32,1.35,4.65,1.94,7,.59,2.35,1.12,4.71,1.59,7.09.47,2.38.89,4.76,1.24,7.16.36,2.4.65,4.8.89,7.21.24,2.41.42,4.83.53,7.25.12,2.42.18,4.84.18,7.27Z"/>
      </g>
      <g class="cls-29">
        <path class="cls-42" d="M285.07,154.06c0,2.24-.05,4.48-.17,6.72-.11,2.24-.27,4.47-.49,6.7-.22,2.23-.49,4.46-.82,6.67-.33,2.22-.71,4.43-1.15,6.62-.44,2.2-.93,4.39-1.47,6.56s-1.14,4.33-1.79,6.48c-.65,2.15-1.35,4.27-2.11,6.38-.76,2.11-1.56,4.2-2.42,6.27-.86,2.07-1.77,4.12-2.72,6.15-.96,2.03-1.97,4.03-3.02,6.01-1.06,1.98-2.16,3.93-3.31,5.85-1.15,1.92-2.35,3.82-3.6,5.68-1.25,1.86-2.54,3.7-3.87,5.5s-2.71,3.57-4.14,5.3c-1.42,1.73-2.89,3.43-4.39,5.09-1.51,1.66-3.05,3.28-4.64,4.87-1.59,1.59-3.21,3.13-4.87,4.64-1.66,1.51-3.36,2.97-5.09,4.39-1.73,1.42-3.5,2.8-5.3,4.14-1.8,1.34-3.63,2.63-5.5,3.87-1.86,1.25-3.76,2.44-5.68,3.6-1.92,1.15-3.87,2.26-5.85,3.31-1.98,1.06-3.98,2.06-6.01,3.02-2.03.96-4.08,1.87-6.15,2.72-2.07.86-4.16,1.66-6.27,2.42-2.11.76-4.24,1.46-6.38,2.11-2.15.65-4.3,1.25-6.48,1.79-2.17.54-4.36,1.04-6.56,1.47-2.2.44-4.41.82-6.62,1.15s-4.44.6-6.67.82c-2.23.22-4.47.38-6.7.49s-4.48.16-6.72.16c-2.24,0-4.48-.05-6.72-.16-2.24-.11-4.47-.27-6.7-.49-2.23-.22-4.46-.49-6.67-.82-2.22-.33-4.43-.71-6.62-1.15-2.2-.44-4.39-.93-6.56-1.47-2.17-.54-4.33-1.14-6.48-1.79s-4.27-1.35-6.38-2.11c-2.11-.76-4.2-1.56-6.27-2.42-2.07-.86-4.12-1.77-6.15-2.72s-4.03-1.97-6.01-3.02c-1.98-1.06-3.93-2.16-5.85-3.31-1.92-1.15-3.82-2.35-5.68-3.6-1.86-1.25-3.7-2.54-5.5-3.87-1.8-1.34-3.57-2.71-5.3-4.14-1.73-1.42-3.43-2.89-5.09-4.39-1.66-1.51-3.28-3.05-4.87-4.64-1.59-1.59-3.13-3.21-4.64-4.87-1.51-1.66-2.97-3.36-4.39-5.09-1.42-1.73-2.8-3.5-4.14-5.3-1.34-1.8-2.63-3.63-3.87-5.5s-2.44-3.76-3.6-5.68c-1.15-1.92-2.26-3.87-3.31-5.85-1.06-1.98-2.06-3.98-3.02-6.01-.96-2.03-1.87-4.08-2.72-6.15-.86-2.07-1.66-4.16-2.42-6.27-.76-2.11-1.46-4.24-2.11-6.38-.65-2.15-1.25-4.3-1.79-6.48-.54-2.17-1.04-4.36-1.47-6.56-.44-2.2-.82-4.41-1.15-6.62-.33-2.22-.6-4.44-.82-6.67-.22-2.23-.38-4.47-.49-6.7-.11-2.24-.16-4.48-.16-6.72s.05-4.48.16-6.72c.11-2.24.27-4.47.49-6.7.22-2.23.49-4.46.82-6.67.33-2.22.71-4.43,1.15-6.62.44-2.2.93-4.39,1.47-6.56.54-2.17,1.14-4.33,1.79-6.48.65-2.15,1.35-4.27,2.11-6.38s1.56-4.2,2.42-6.27c.86-2.07,1.77-4.12,2.72-6.15.96-2.03,1.97-4.03,3.02-6.01,1.06-1.98,2.16-3.93,3.31-5.85,1.15-1.92,2.35-3.82,3.6-5.68s2.54-3.7,3.87-5.5,2.71-3.57,4.14-5.3c1.42-1.73,2.89-3.43,4.39-5.09s3.05-3.28,4.64-4.87c1.59-1.59,3.21-3.13,4.87-4.64,1.66-1.51,3.36-2.97,5.09-4.39,1.73-1.42,3.5-2.8,5.3-4.14,1.8-1.34,3.63-2.63,5.5-3.87,1.86-1.25,3.76-2.44,5.68-3.6,1.92-1.15,3.87-2.26,5.85-3.31,1.98-1.06,3.98-2.06,6.01-3.02,2.03-.96,4.08-1.87,6.15-2.72,2.07-.86,4.16-1.66,6.27-2.42,2.11-.76,4.24-1.46,6.38-2.11s4.3-1.25,6.48-1.79c2.17-.54,4.36-1.04,6.56-1.47,2.2-.44,4.41-.82,6.62-1.15,2.22-.33,4.44-.6,6.67-.82,2.23-.22,4.47-.38,6.7-.49,2.24-.11,4.48-.17,6.72-.17s4.48.06,6.72.17,4.47.27,6.7.49c2.23.22,4.46.49,6.67.82,2.22.33,4.43.71,6.62,1.15,2.2.44,4.39.93,6.56,1.47s4.33,1.14,6.48,1.79c2.15.65,4.27,1.35,6.38,2.11,2.11.76,4.2,1.56,6.27,2.42s4.12,1.77,6.15,2.72c2.03.96,4.03,1.97,6.01,3.02,1.98,1.06,3.93,2.16,5.85,3.31,1.92,1.15,3.82,2.35,5.68,3.6s3.7,2.54,5.5,3.87c1.8,1.34,3.57,2.71,5.3,4.14,1.73,1.42,3.43,2.89,5.09,4.39,1.66,1.51,3.28,3.05,4.87,4.64s3.13,3.21,4.64,4.87c1.51,1.66,2.97,3.36,4.39,5.09,1.42,1.73,2.8,3.5,4.14,5.3s2.63,3.63,3.87,5.5c1.25,1.86,2.44,3.76,3.6,5.68,1.15,1.92,2.26,3.87,3.31,5.85s2.06,3.98,3.02,6.01c.96,2.03,1.87,4.08,2.72,6.15.86,2.07,1.66,4.16,2.42,6.27.76,2.11,1.46,4.24,2.11,6.38.65,2.15,1.25,4.3,1.79,6.48.54,2.17,1.04,4.36,1.47,6.56.44,2.2.82,4.41,1.15,6.62.33,2.22.6,4.44.82,6.67.22,2.23.38,4.47.49,6.7.11,2.24.17,4.48.17,6.72Z"/>
        <path class="cls-28" d="M56.15,194c-5.52-12.63-8.32-26.07-8.32-39.95s2.8-27.32,8.32-39.95l-15.06-6.58c-6.44,14.72-9.69,30.38-9.69,46.53s3.26,31.81,9.69,46.53l15.06-6.58ZM264.8,154.06c0-16.16-3.26-31.81-9.69-46.53l-15.06,6.58c5.52,12.63,8.32,26.07,8.32,39.95s-2.8,27.32-8.32,39.95l15.06,6.58c6.43-14.72,9.69-30.37,9.69-46.53ZM148.09,78c-41.94,0-76.06,34.12-76.06,76.06s34.12,76.06,76.06,76.06,76.06-34.12,76.06-76.07-34.12-76.06-76.06-76.06ZM148.09,236.69c-45.56,0-82.64-37.07-82.64-82.64s37.07-82.64,82.64-82.64,82.64,37.07,82.64,82.64-37.07,82.64-82.64,82.64ZM148.09,20.37c-35.71,0-69.28,13.91-94.53,39.16-25.25,25.25-39.16,58.82-39.16,94.53s13.91,69.28,39.16,94.53c25.25,25.25,58.82,39.16,94.53,39.16s69.28-13.91,94.53-39.16c25.25-25.25,39.16-58.82,39.16-94.53s-13.91-69.28-39.16-94.53c-25.25-25.25-58.82-39.16-94.53-39.16ZM148.09,294.32c-37.47,0-72.69-14.59-99.18-41.08-26.49-26.49-41.08-61.72-41.08-99.18s14.59-72.69,41.08-99.18c26.49-26.49,61.72-41.08,99.18-41.08s72.69,14.59,99.18,41.08c26.49,26.49,41.08,61.72,41.08,99.18s-14.59,72.69-41.08,99.18c-26.49,26.49-61.72,41.08-99.18,41.08Z"/>
      </g>
      <g class="cls-44">
        <path class="cls-1" d="M139.52,188.27c2.21-2.34,4.97-5.26,5.55-8.52-3.66,3.47-10.52,1.96-5.55,8.52ZM151,86.6c2.07,4.19,4.04,8.01,5.07,12.58.52,2.92.72,5.53.9,8.18,1.28-1.58,2.66-2.41,4.52-3.44,2.14-1.1,3.97-1.96,5.93-3.37,2.55-1.89,3.9-3.68,5.28-6.56-1.17,3.02-2.41,4.95-4.83,7.11-1.9,1.61-3.69,2.61-5.76,3.92-1.76,1.13-3.07,2.06-4.1,3.88-.93,1.82-.79,2.47-.62,4.4.69,5.39,4.24,7.9,6.07,13.95.17.69.31,1.37.45,2.03,2.97-1,6.52-1.65,10.52-3.26,1.9-.79,3.55-1.68,5.07-2.75,2.76-2.47,2.41-5.67,1.86-8.73-.45-2.37-1.03-4.64-1.35-7.04-.14-1.13-.17-2.1.03-3.23.21-1.07.48-1.79,1.17-2.65-.45.93-.59,1.65-.55,2.68.07,1.07.31,1.92.62,2.92.79,2.23,1.86,4.33,2.76,6.53.52,1.34.97,2.54,1.21,3.81,1.38-1.92,2.31-3.64,3.1-5.94.76-2.41,1-4.33.76-6.87-.34-2.85-.38-4.43-1.48-7.18,1.48,2.61,1.86,4.16,2.59,6.98.69,2.71.72,4.84.34,7.59-.48,2.78-1.28,4.91-2.55,7.42-1.03,1.86-2.14,3.5-3.35,4.98,1.28.03,2.55.1,3.93.21,2.38.14,4.79.34,7.17.03,1-.21,1.76-.41,2.66-.96.93-.62,1.41-1.27,1.93-2.27-.34,1.13-.72,1.86-1.55,2.71-.86.79-1.62,1.2-2.72,1.61-2.41.86-4.86,1.1-7.42,1.37-1.97.24-3.76.45-5.59.86-3.48.79-3.04,1.1-6.07,2.99-1.83.96-4.79,2.1-7.21,3.06-4.93,1.96-5.62,3.26-5.24,6.7,5.17-1.61,11.11,1.03,16.14,1.96,1.83.27,3.07.17,4.86-.38,2.69-.86,4.73-2.27,6.9-3.99,2.55-2.1,5.1-4.4,8.35-5.36,1.55-.38,2.69-.38,4.28-.21,2,.31,3.9.86,5.83,1.48-2-.41-3.86-.72-5.9-.72-1.41,0-2.48.1-3.79.65-2.62,1.24-5.04,3.95-7.1,5.98-2.31,2.23-4.38,3.99-7.24,5.43-2.28,1-4,1.34-6.48,1.31-1.52-.07-2.97-.24-4.41-.45l.03.03c.45,1,.83,1.82,1.48,2.71.76,1.03,1.45,1.61,2.55,2.27,1.62.93,3.14,1.24,4.97,1.44,3,.34,5.66.1,8.66-.34,2.41-.27,5.07-1.07,7.62-1.41,1.59-.17,3-.27,4.59-.1.69.1,1.28.21,1.93.48.41.1,1.14.62,1.45.96-.48-.38-.93-.58-1.52-.76-.66-.17-1.21-.21-1.9-.24-1.55,0-2.9.24-4.38.62-2.66.65-4.86,1.48-7.42,2.3-3.14.79-5.93,1.34-9.17,1.44-2.35-.03-4.17-.27-6.38-1.1-1.72-.76-2.83-1.55-4.14-2.89-.97-1.07-1.62-2.03-2.35-3.26-.66-1.07-1.41-2.1-2.62-2.61-.31-.14-.62-.21-.9-.24h-.55c-.17.03-.38.07-.59.1-.93.27-1.62.76-2.35,1.37-.9.82-1.55,1.61-2.17,2.65-.86,1.58-1.17,3.88-1.07,6.36.14,4.3,1.45,9.11,3.04,11.55.97,1.51,2.52,2.71,2.55,2.71.48.31,1,.45,1.55.58,4.59.72,11.24-2.58,16.73-3.2,6.66-.62,8.73,5.26,12.35,6.36,2.38.72,6.45.03,9.21.1.31-1.41,1.52-2.58,3-2.71,1.86-.03,3,1.44,5.83,1.34-3.31.27-4.9-2.06-7.1-.48l-1.21,1.86c3.52.14,6.07.82,9.42,2.75-3.48-1.51-6.07-1.89-9.52-1.51-.03,1.34-.07,3.06-1.55,3.81-1.45.76-3.14-.03-4.83.07-2.83.21-6.24,2.85-9-1.72-.66-1.13-1.14-2.03-1.66-2.89-3.35-5.64-10.66-.27-14.8,1.27,2.28-.58,5.76-1.99,7.76-2.1,2.41-.1,4.07,1.13,4.97,3.3.38.89.48,1.72.62,2.44,1.21-.27,3.69-.27,4.79.34,1.21.69,1.69,2.23,1.97,3.54,4.14.38,10.97-.41,13.8.69.9.34,1.97,1.07,1.69,2.16-.48,1.96-4.55,2.27-1.83,6.32-.69-.89-1.35-1.99-1.07-3.16.45-1.86,3.21-2.75,2-3.99-1.59-1.68-11.48,0-14.28-.03.48,4.02.76,6.67,5.62,6.91-1.31,0-2.38-.14-3.52-.79-1.93-1.2-2.14-3.33-2.66-6.12-2.9-.07-7.1-.48-8.62-3.44-1.14.89-2.07,1.79-3.31,2.58-4.38,2.58-6.93-1.07-8.55.65-.9.96-1.41,3.23-2.69,5.05,4.21-.76,7.17-2.23,10.97-3.81,2.76-1.13,8.24-2.68,10.48.14.79,1,.59,1.82.1,2.78-.41.79-1.76,1.44-2.48,1.75,1.07,2.41,1.17,3.23,3.21,5.36.41.45,1.03.52,1.62.52,3.79.07,7.04-1.34,10.62,1.07-5.07-2.65-10.48,1.89-13.31-.41-2.21-1.79-2.97-3.23-4.28-5.53-2,1.37-2.55,5.15-1.72,7.08,1.55,3.61,7.1,4.16,8.31,8.35-2.14-5.57-11.55-4.16-9.28-13.37.31-1.31.93-2.37,2-3.16-1.48-1.99-2.45-1.96-4.62-.96-1.28.62-2.55,1.34-3.79,1.99,1.48,1.89.69,3.88-.79,5.5l-.97,1.34.55.45c.93.65,3.07.52,3.83,1.17,1.45,1.24-.31,3.99.9,4.57,2.1,1.03,4.62.27,5.59,2.06.93,1.89-.34,3.92,2.59,4.74-2.86-.17-2-2.96-3-4.47-.83-1.24-2.62-.72-4.38-1.1l-.97,2.92c.03.79,1.41,1.44,2.03,2.03,1.07,1,.31,3.06,1.28,3.4-1-.31-.38-1.99-1.48-3.2-.45-.48-2.24-1.03-2.38-2.2l.55-2.27c.31-1.03-1.03-1-1.31-2.47-.31-1.58.45-3.02-.55-3.09-1.45-.1-4.38-.41-4.9-2.1-.38-1.24.59-2.27,1.17-3.06,1.45-2.03.52-3.3-1.48-2.47-4.38,1.82-9.42,2.99-14.04,1.07-.69,2.68,7.55,4.3,9.28,4.78,8.31,2.34,2.41,9.76,7.97,14.88,1,.93,1.97,1.48,3.17,2.06-9.93-3.85-5.14-11.58-9.31-14.29-1.14-.72-2.86-.96-4.24-1.2.72,2.06-1.14,3.61-1.35,4.36-.17.58.1,1.17.52,1.58,1.28,1.37,3.21.86,3.55,2.27-.69-1.27-2.41-.72-3.83-1.99-2.07-1.92.41-3.09.45-5.02,0-1.55-1.41-1.58-2.66-1.89-3.14-.76-7.04-2.06-6.62-5.91.07-.45.14-.86.28-1.27l-1.93-1.68c.21,2.51.03,4.5.28,6.94.31,2.1,1.62,4.12,2.07,6.15.86,3.37,3.41,4.47,6.69,5.46,2.31.69,4.52,1.07,6.17,2.75,3.52,3.54.14,5.88,1.24,8.18-1.45-2.37,1.48-4.57-2-7.35-1.55-1.24-3.72-1.2-5.9-1.65-3.17-.62-6.45-1.51-8.35-4.23l-.28,2.41c-.17,2.58-3.04,4.98.55,5.5,2.17.31,6.66.17,8.48,2.44,1.28,1.58-.93,2.75-1.59,3.99-.31.58-.24,1.13.21,1.68-1.62-1.89,1.52-3.3,1.35-4.67-.07-.65-.86-1.1-1.45-1.37-1.28-.58-2.45-.76-3.66-.79.28.76.1,1.55-.14,2.27-.45,1.34-1.76,1.96-2.07,2.99-.1.38-.07,1.44.52,1.48-.59.03-1.21-1.24-.28-2.61.79-1.2,1.48-1.86,1.21-3.5-.1-.52-.72-.41-1.07-.58-.76-.34-4.14.52-4.69-2.13-1.17,1.79-1.69,3.23-1.76,5.29,0,.69.14,1.1.45,1.72.55.96.1.38.97,1.27l.69,1.31-.79-1.2c-.83-.76-.55-.31-1.14-1.2-.79-1.24-.72-2.27-.59-3.75.31-2.58,1.55-4.16,2.45-5.81,1.17-2.16,1.45-6.22.41-8.38-.45-.89-1.1-1.79-2.03-4.6-.76-2.71-.86-5.5-1.59-8.35-.24-.89-.52-1.92-.86-2.96-.34,1.03-.62,2.06-.86,2.96-.72,2.85-.83,5.64-1.59,8.35-.93,2.82-1.62,3.68-2.03,4.6-1.03,2.16-.76,6.22.41,8.38.9,1.65,2.1,3.23,2.45,5.81.14,1.48.17,2.51-.59,3.75-.9,1.41-.93.62-1.48,1.82l-.41.58.69-1.31c.9-.86.45-.27.97-1.27.66-1.24.41-2.23.24-3.54-.17-1.2-.79-2.34-1.52-3.44-.55,2.65-3.93,1.79-4.69,2.13-.48.21-1.52-.17-1.03,2.03.28,1.24,1.48,2.03,1.62,3.13.03.38-.1,1.55-.76,1.55.52-.03,1-1.2,0-2.41-.66-.72-1.17-1.13-1.52-2.1-.24-.72-.41-1.55-.14-2.27-1.21.07-2.35.24-3.66.79-4.07,2.06,2.07,3.57-.07,6.08,1.72-2.23-3.17-3.47-1.38-5.64,2.17-2.68,7.97-1.96,9.62-2.71,1.66-.79-.48-3.26-.59-5.19l-.28-2.41c-1.9,2.68-5.17,3.61-8.35,4.23-2.17.41-4.35.41-5.9,1.65-3.48,2.78-.59,4.98-2,7.35,1.1-2.3-2.28-4.64,1.24-8.18,3.55-3.57,11.24-1.89,12.86-8.21.48-2.03,1.79-4.05,2.07-6.15.24-2.44.07-4.47.28-6.94l-1.93,1.68c.66,2.06.24,4.09-1.62,5.36-1.38.86-3.04,1.41-4.73,1.82-1.21.31-2.66.38-2.66,1.89.03,1.92,2.52,3.09.45,5.02-1.41,1.27-3.14.76-3.83,1.99.34-1.41,2.28-.93,3.55-2.27,1.66-1.79-.72-2.37-1-4.67-.03-.48,0-.89.14-1.27-2.07.38-4.38.55-5.45,2.51-2.03,3.64.52,9.66-8.1,12.99,2-.96,3.9-2.3,4.93-4.33,2.41-4.74-.93-10.62,6.21-12.64,1.72-.48,9.97-2.06,9.28-4.78-4.62,1.92-9.66.79-14.04-1.07-1.97-.82-2.93.45-1.48,2.47.59.79,1.55,1.82,1.17,3.06-.66,2.16-4.93,1.96-5.21,2.2-.59.48.28,2.65-.59,3.81-.55.76-1.21.86-.97,1.65.52,1.75,1.17,2.44-.41,3.57-1.69,1.24-1.62.52-2.1,2.65-.1.48-.14,1.24-.76,1.41.97-.34.24-2.41,1.28-3.4,1.35-1.31,2.45-1.2,1.83-2.85l-.76-2.13c-1.76.38-3.59-.14-4.38,1.1-1,1.55-.14,4.3-3,4.47,3.45-.96,1.14-3.95,3.24-5.46,1.24-.89,4.69-.62,5.24-1.61.59-1.03-1.17-4.3,1.59-4.71.93-.14,1.97-.34,2.83-.76.59-.41,1-.24-.41-1.82-1.48-1.61-2.28-3.61-.79-5.5-1.24-.65-5.31-3.13-6.59-2.61l-1.83,1.58c2.41,1.82,2.9,6.18,1.69,8.49-2,3.85-7.35,3.75-9,8.04,1.59-5.6,10.8-4.67,8.24-13.09-.31-1-.79-1.79-1.62-2.34-1.31,2.3-2.1,3.75-4.28,5.53-2.83,2.3-8.21-2.23-13.31.41,4.21-2.82,9.14-.38,11.62-1.2.24-.1.41-.17.62-.38,2.03-2.1,2.14-2.96,3.21-5.36-1.48-.58-3.38-1.82-2.79-3.71.28-.82,1-1.48,1.76-1.86,2.62-1.24,6.62-.1,9.14.93,3.83,1.55,6.76,3.02,10.97,3.81-2.14-3.02-1.76-5.91-4.45-5.46-1.97.31-3.66,1.61-6.83-.24-1.24-.76-2.17-1.65-3.31-2.58-1.52,2.96-5.76,3.37-8.62,3.44-.52,2.78-.72,4.91-2.66,6.12-1.14.65-2.24.79-3.52.79,4.86-.24,5.14-2.89,5.62-6.91-2.79.03-12.69-1.65-14.28.03-1.72,1.79,4.52,2.58.97,7.15.9-1.34,1.41-2.75.21-4.05-.62-.69-3.07-2.06-1.66-3.61.69-.72,1.97-1.1,2.93-1.24,3.52-.45,8.31.1,12.14-.27.76-3.68,2.21-4.16,5.66-4.05.41.03.76.07,1.1.14.34-1.82.83-3.95,2.83-5.12,1.76-1,3.76-.62,5.59-.03,1.72.55,3.28,1.1,4.93,1.51-4.14-1.55-11.45-6.91-14.8-1.27-2.28,3.81-2.76,6.22-7.48,5.29-.97-.17-2.21-.65-3.17-.72-1.97-.14-4.97,1.31-6.07-1.58-.28-.79-.28-1.48-.28-2.3-3.45-.38-6.04-.03-9.52,1.51,3.35-1.92,5.93-2.61,9.42-2.75-.24-1.24-1.24-2.2-2.52-2.41-1.62-.17-3.04,1.27-5.76,1.03,3.45.14,4.83-2.41,7.31-.82.79.52,1.31,1.31,1.52,2.16,2.76-.07,6.83.62,9.21-.1,3.62-1.1,5.69-7.01,12.35-6.36,9.17,1.07,17.73,7.32,22.38-1.82,1.72-3.37,3.04-8.18,1.69-11.79-1.14-3.09-4.04-5.5-9.31-5.77-7.79,0-12.86,3.85-20.94,5.29-6.73.76-10.38-.65-16.55-2.78-2.28-.76-4.17-1.34-6.59-1.51-2.66-.1-4.41.38-6.73,1.65,2.21-1.58,4-2.3,6.73-2.54,2.55-.14,4.59.24,7.04.76,5.79,1.17,9.42,2.13,15.38.82,6.79-1.96,10-5.02,15.66-6.84-3.72-.69-6.93-1.34-10.45-2.78-2.52-1.1-4.41-2.27-6-3.99-.69-.24-1.41-.48-2.24-.72-3.17-.86-5.97-1.1-9.21-1.41-2.59-.21-5.31-.31-7.69-1.44-1-.52-1.66-1.03-2.21-2.03-.52-1.17-.55-2.16-.41-3.4.03,1.17.21,2.16.9,3.09.59.76,1.21,1.07,2.1,1.37,2.28.52,5,.24,7.31.07.45-.03.93-.07,1.35-.1,2.38-.21,4.55-.31,6.93-.17-.83-1.92-1.21-3.71-1.31-6.05-.1-2.37.14-4.43.34-6.8.17-1.99.31-3.75-.03-5.74-.21-.93-.45-1.61-.97-2.41-.59-.93-1.17-1.48-2.07-2.13.97.55,1.66,1.07,2.41,1.89.66.79,1.03,1.48,1.38,2.44.69,2.03.79,3.85.86,5.98.1,2.23.14,4.26.55,6.49.48,2.41,1.14,4.05,2.55,6.05,2,2.54,3.97,3.61,7.07,4.5,3.28.82,6.38.96,9.73,1.17,3.21.17,6.76.55,10,1.61,8.42,2.75,13.62,9.59,12.93,18.21.9-7.42-.28-11.06-5.48-16.01-1.24-2.68-3.1-5.02-5-7.25-3.59-4.09-6.52-6.22-10.52-9.62-4.1-3.54-5.93-6.08-7.17-11.41-.55-3.57.17-6.84.59-10.41.17-1.72.28-3.2.07-4.91-.28-1.72-.69-2.89-1.83-4.23,1.35,1.2,2,2.37,2.55,4.09.52,1.75.66,3.3.76,5.15.1,3.06-.1,6.63.93,9.52,1.62,4.23,3.38,5.77,7.14,8.07,1.24.72,2.38,1.34,3.45,1.92.17-2.23.72-4.26,1.66-6.63.24-.55.38-1.13.52-1.72.17-.93.24-1.89.03-2.99-.52-1.82-1.38-2.89-2.55-4.33-1.41-1.75-2.41-2.96-3.14-5.12-.34-1.27-.45-2.27-.38-3.57.17-1.65.52-3.02,1.03-4.6-.24,1.61-.31,2.96-.07,4.57.17,1.13.38,1.99.97,2.99.97,1.68,2.1,2.54,3.59,3.78,1.59,1.27,2.66,2.23,3.66,3.78,1.45-2.61,2.86-5.15,3.76-7.7.28-1.07.28-1.79-.07-2.82-.41-1.03-1-1.75-1.66-2.65-.76-.96-1.41-1.79-1.93-2.92-.55-1.31-.69-2.27-.45-3.68,0,1.34.28,2.23,1.03,3.33.69.93,1.45,1.61,2.31,2.37.97.86,1.69,1.55,2.41,2.65.83,1.41,1.03,2.54.9,4.16-.66,5.33-3.35,10.58-4.59,16.05-.48,2.61-.62,4.71.14,7.28.79,2.13,2.76,4.54,5.07,6.94,3.31,3.2,5.9,6.18,7.24,10.69,0-5.81,4.41-6.8,3.55-13.4-1.21-6.25-4.14-7.94-4.24-15.02.31-5.02.83-8.9.48-14.02-.14-3.68-2.24-9.31-3.48-12.82ZM136.62,190.43c-2.14-2.44-5.07-6.18-2.76-9.45-4.31,1.24-9.24-1.24-13.14-2.78-3.38-1.37-3.9-.1-4.62,3.02l3.59,2.51c2.55,1.34,3.72.21,5.73-.27,4.41-1.03,4.83,3.78,6.79,6.01,1.45,1.58,2.59,1.68,4.41.96ZM107.65,178.92c1.24-.72,2.21-3.37,2.86-4.64-1.62,1.2-2.93,2.16-5.21,2.61-2.69.41-6.76-.69-9.59-1.07.03.69.07,1.34.34,1.96,1.03,2.34,3.69.62,5.52.79,2.07.21,4.62,1.17,6.07.34ZM111.79,190.19l2.07-2.58c-.69-.1-1.41-.17-2.17-.17-.66-.03-3.62.96.1,2.75ZM157.52,179.78c.59,3.26,3.35,6.18,5.55,8.52,4.97-6.6-1.86-5.09-5.55-8.52ZM168.73,180.99c2.31,3.26-.62,7.04-2.76,9.45,1.86.72,2.97.62,4.41-1,1.93-2.23,2.38-7.04,6.79-6.01,2,.48,3.17,1.58,5.73.27l3.59-2.51c-.72-3.09-1.24-4.4-4.62-3.02-3.9,1.58-8.83,4.05-13.14,2.82ZM188.73,187.62l2.07,2.58c3.72-1.79.76-2.78.1-2.75-.76,0-1.48.07-2.17.17ZM107.48,183.8c2.03-.24,5.04-.76,5.79-2.75-.97-.27-3.21-.41-4.14.07-.93.45-1.35,1.72-1.66,2.68ZM189.29,181.05c.76,1.99,3.76,2.54,5.79,2.75-.28-.96-.72-2.23-1.69-2.71-.9-.45-3.14-.31-4.1-.03ZM192.05,174.29c.66,1.31,1.66,3.92,2.86,4.64,1.45.86,4-.14,6.07-.31,1.83-.17,4.48,1.51,5.52-.79.28-.62.31-1.31.34-1.96-2.86.38-6.93,1.48-9.59,1.07-2.28-.52-3.55-1.48-5.21-2.65"/>
        <path class="cls-8" d="M132.41,131.06s-6.76,5.53-11.28-1c-.03,0,6.93-5.29,11.28,1"/>
        <path class="cls-8" d="M119.65,115.01s-7.69.17-7.28-6.77c.03,0,7.69.1,7.28,6.77"/>
        <path class="cls-8" d="M119.93,102.44s-6.73.41-6.59-5.67c0-.03,6.73-.21,6.59,5.67"/>
        <path class="cls-8" d="M136.62,102.3s-1.9-5.12,2.9-6.43c0,0,1.69,5.19-2.9,6.43"/>
        <path class="cls-8" d="M138.17,91.2s-5.45-.24-4.83-5.15c0,0,5.48.45,4.83,5.15"/>
        <path class="cls-8" d="M125.55,98.48s-2.17-6.63,4.04-8.07c0,.03,1.93,6.73-4.04,8.07"/>
        <path class="cls-8" d="M102.03,118.79s-7.59-1.27-5.83-8.01c0,0,7.52,1.55,5.83,8.01"/>
        <path class="cls-8" d="M106.27,109.76s-2.83-6.22,3.04-8.32c0,0,2.62,6.32-3.04,8.32"/>
        <path class="cls-8" d="M97.1,129.99s-6.48-1.44-4.69-7.22c0,0,6.45,1.68,4.69,7.22"/>
        <path class="cls-8" d="M134.38,115.53s-8.48-1.65-6.35-9.17c0,0,8.45,1.96,6.35,9.17"/>
        <path class="cls-8" d="M113.82,129.65s-4.59-6.15,1.35-9.79c0,0,4.38,6.29-1.35,9.79"/>
        <path class="cls-8" d="M104.44,138.55s-4.55,6.18-9.79,1.61c0,0,4.76-6.01,9.79-1.61"/>
        <path class="cls-8" d="M87.96,133.81s-4.41,4.98-8.62.62c0,0,4.59-4.84,8.62-.62"/>
        <path class="cls-8" d="M112.2,148.07s-7.14,2.85-9.17-3.81c0,0,7.21-2.58,9.17,3.81"/>
        <path class="cls-8" d="M90.89,146.56s-7.38,1.17-7.9-5.6c.03.03,7.45-.86,7.9,5.6"/>
        <path class="cls-8" d="M156.04,130.92s-8-.79-6.66-7.97c0,.03,7.97,1.1,6.66,7.97"/>
        <path class="cls-8" d="M146.86,117.35s-2-5.81,3.41-7.18c.03,0,1.83,5.88-3.41,7.18"/>
        <path class="cls-8" d="M153,105.67s-5.28-1.41-3.59-6.08c0,0,5.21,1.61,3.59,6.08"/>
        <path class="cls-8" d="M126.48,152.19s.66,7.63-6.31,7.63c-.03,0-.41-7.66,6.31-7.63"/>
        <path class="cls-8" d="M101.96,156.31s-2.24,6.84-8.28,4.26c0,0,2.52-6.73,8.28-4.26"/>
        <path class="cls-8" d="M86.65,152.98s.14,8.28-7.38,7.77c0,0,.14-8.28,7.38-7.77"/>
        <path class="cls-8" d="M158.94,100.75s-1.86-6.49,4.17-7.7c0,0,1.66,6.56-4.17,7.7"/>
        <path class="cls-8" d="M155.24,91.85s-1-4.98,3.62-5.5c0,0,.83,5.02-3.62,5.5"/>
        <path class="cls-8" d="M145.24,94.09s-2.21-4.78,2.28-6.43c0,0,2.07,4.88-2.28,6.43"/>
        <path class="cls-8" d="M168.7,95.08s-3.35-2.71-.59-5.53c-.03,0,3.21,2.85.59,5.53"/>
        <path class="cls-8" d="M163.87,122.64s-3.31-8.69,4.83-11c0,0,3,8.8-4.83,11"/>
        <path class="cls-8" d="M162.76,106.97s4.28-4.4,7.93-.21c0,0-4.41,4.26-7.93.21"/>
        <path class="cls-8" d="M171.56,99.62s2.86-5.43,7.55-2.44c0,0-3.04,5.33-7.55,2.44"/>
        <path class="cls-8" d="M175.46,122.98s-4.48-3.68-.79-7.42c0,0,4.35,3.85.79,7.42"/>
        <path class="cls-8" d="M177.97,110.58s-5.73-1.44-4-6.49c0,0,5.69,1.65,4,6.49"/>
        <path class="cls-8" d="M175.11,139.27s1.1-8.32,8.59-6.67c0,0-1.41,8.25-8.59,6.67"/>
        <path class="cls-8" d="M192.77,112.92s2.07-7.08,8.31-4.67c0,0-2.31,6.98-8.31,4.67"/>
        <path class="cls-8" d="M187.8,129.93s5.73-2.75,7.79,2.65c0,0-5.83,2.54-7.79-2.65"/>
        <path class="cls-8" d="M199.94,130.51s-.14-6.01,5.35-5.67c0,0-.1,6.01-5.35,5.67"/>
        <path class="cls-8" d="M190.32,157.69s8.38-3.2,10.66,4.6c0,0-8.48,2.89-10.66-4.6"/>
        <path class="cls-8" d="M193.22,150.34s.17-6.01,5.66-5.39c0-.03-.41,6.01-5.66,5.39"/>
        <path class="cls-8" d="M206.25,149.13s.17-6.01,5.66-5.39c-.03-.03-.41,6.01-5.66,5.39"/>
        <path class="cls-8" d="M193.22,150.3s.21-7.32,6.83-6.56c0,.03-.48,7.32-6.83,6.56"/>
        <path class="cls-8" d="M200.08,137.73s4.73-3.06,7.17,1.44c-.03,0-4.86,2.92-7.17-1.44"/>
        <path class="cls-8" d="M193.15,104.67s-2.21-5.91,3.35-7.42c0,0,2,5.98-3.35,7.42"/>
        <path class="cls-8" d="M184.11,108.59s-2.07-4.67,2.35-6.18c0,.03,1.9,4.78-2.35,6.18"/>
        <path class="cls-8" d="M172.87,153.6s5.21,3.88,1.28,8.28c0,0-5.07-4.05-1.28-8.28"/>
        <path class="cls-8" d="M206.08,155.39s5.31-2.92,7.55,2.1c0,.03-5.41,2.75-7.55-2.1"/>
        <path class="cls-8" d="M192.29,122.92s-.14-6.36,5.66-6.01c0,0-.1,6.36-5.66,6.01"/>
      </g>
      <g class="cls-34">
        <g class="cls-30">
          <g class="cls-17">
            <rect class="cls-42" x="25.53" y="105.98" width="36.84" height="96.13"/>
          </g>
        </g>
      </g>
      <g class="cls-31">
        <text class="cls-12" transform="translate(70.65 114.7) rotate(-71.06)"><tspan x="0" y="0">S</tspan></text>
        <text class="cls-12" transform="translate(76.65 94.91) rotate(-53.15)"><tspan x="0" y="0">A</tspan></text>
        <text class="cls-12" transform="translate(93.38 72) rotate(-32.14)"><tspan x="0" y="0">M</tspan></text>
        <text class="cls-11" transform="translate(118.99 56.38) rotate(-12.79)"><tspan x="0" y="0">R</tspan></text>
        <text class="cls-12" transform="translate(141.98 50.85) rotate(5.23)"><tspan x="0" y="0">U</tspan></text>
        <text class="cls-11" transform="translate(167.88 53.15) rotate(23.78)"><tspan x="0" y="0">D</tspan></text>
        <text class="cls-11" transform="translate(191.05 63.23) rotate(42.1)"><tspan x="0" y="0">D</tspan></text>
        <text class="cls-12" transform="translate(209.91 80) rotate(60.69)"><tspan x="0" y="0">H</tspan></text>
        <text class="cls-11" transform="translate(222.22 103.91) rotate(74.42)"><tspan x="0" y="0">I</tspan></text>
      </g>
      <g class="cls-4">
        <g class="cls-30">
          <g class="cls-5">
            <rect class="cls-42" x="233.46" y="105.98" width="36.84" height="96.13"/>
          </g>
        </g>
      </g>
      <g class="cls-33">
        <text class="cls-10" transform="translate(56.34 233.43) rotate(41.12)"><tspan x="0" y="0">O</tspan></text>
        <text class="cls-9" transform="translate(80.45 253.33) rotate(27.73)"><tspan x="0" y="0">R</tspan></text>
        <text class="cls-9" transform="translate(104.22 265.29) rotate(15.2)"><tspan x="0" y="0">G</tspan></text>
        <text class="cls-9" transform="translate(131.33 272.23) rotate(1.5)"><tspan x="0" y="0">A</tspan></text>
        <text class="cls-9" transform="translate(162.82 272.25) rotate(-12.32)"><tspan x="0" y="0">N</tspan></text>
        <text class="cls-9" transform="translate(189.6 265.44) rotate(-21.9)"><tspan x="0" y="0">I</tspan></text>
        <text class="cls-9" transform="translate(202.49 260.44) rotate(-31.23)"><tspan x="0" y="0">C</tspan></text>
        <text class="cls-10" transform="translate(225.29 245.85) rotate(-42.94)"><tspan x="0" y="0">S</tspan></text>
      </g>
      <g class="cls-20">
        <g class="cls-21">
          <g class="cls-24">
            <g class="cls-37">
              <path class="cls-1" d="M242.63,196.38c-.14,0-.27-.04-.39-.12-.29-.21-.35-.61-.15-.9.05-.08,5.43-7.65,8.86-19.57,2.01-6.99,2.96-14.09,2.84-21.1-.16-8.75-2.01-17.4-5.51-25.68-.14-.33.01-.71.34-.84.33-.14.71.02.84.34,3.57,8.45,5.46,17.26,5.61,26.19.13,7.14-.85,14.37-2.9,21.49-3.49,12.12-8.98,19.84-9.03,19.92-.12.17-.31.26-.51.27Z"/>
              <path class="cls-1" d="M237.8,133.2c.5.88,1.13,1.68,1.91,2.32.08.07.17.13.25.19-1.05-.68-1.72-1.54-2.17-2.51ZM236.42,133.13c-.56-1.24-.6-2.65-.62-4.04.37,2.32.67,4.57,2.25,6.3-.68-.64-1.25-1.4-1.63-2.26ZM249.77,138.28c0-.07,0-.14-.04-.22-.93-2.14-1.58-4.17-3.3-5.84-.78-.76-1.72-1.38-2.66-1.92-.5-.29-1.04-.5-1.58-.72-.85-.52-1.76-.94-2.7-1.31-1.29-.63-2.63-1.15-3.99-1.55-.18-.05-.39.11-.37.3.19,2.11-.06,4.27.72,6.28.62,1.62,2.01,2.88,3.46,3.76,3,1.83,6.89,2.17,10.31,1.78.31-.03.36-.44.15-.56Z"/>
              <path class="cls-1" d="M264.09,161.34c.07-.06.14-.11.2-.17.62-.57,1.12-1.26,1.49-2.02-.33.83-.85,1.57-1.7,2.19ZM265.66,160.99c1.24-1.51,1.4-3.39,1.61-5.34.05,1.16.07,2.33-.34,3.39-.28.73-.73,1.39-1.26,1.95ZM256.18,164.36c2.86.17,6.09-.28,8.51-1.93,1.17-.79,2.27-1.9,2.72-3.28.56-1.71.26-3.5.33-5.26,0-.16-.17-.28-.32-.23-1.12.39-2.21.88-3.26,1.46-.77.34-1.51.73-2.2,1.2-.44.21-.88.4-1.28.67-.76.49-1.51,1.05-2.13,1.72-1.35,1.47-1.81,3.18-2.49,5.01-.02.07-.03.13-.02.18-.17.11-.11.45.15.46Z"/>
              <path class="cls-1" d="M235.56,181.39c.44.78,1,1.49,1.69,2.05.07.06.15.11.22.17-.93-.6-1.52-1.36-1.91-2.22ZM234.35,181.33c-.5-1.1-.53-2.34-.55-3.57.33,2.05.6,4.04,1.99,5.56-.6-.57-1.1-1.24-1.44-2ZM246.14,185.88c0-.06,0-.12-.04-.19-.82-1.89-1.4-3.68-2.91-5.16-.69-.68-1.52-1.22-2.35-1.7-.44-.26-.92-.44-1.39-.64-.75-.46-1.56-.83-2.39-1.15-1.14-.56-2.32-1.01-3.53-1.37-.16-.05-.34.1-.33.26.17,1.86-.05,3.77.63,5.55.55,1.43,1.78,2.54,3.06,3.32,2.65,1.61,6.09,1.92,9.11,1.58.27-.03.32-.39.13-.5Z"/>
              <path class="cls-1" d="M263.36,127.15s-.06-.05-.1-.06c.03-.38.04-.76.02-1.14.06-.25.11-.5.14-.76.08.65.03,1.31-.07,1.96ZM255.33,133.52s.06.05.09.07c-.02.39,0,.79.02,1.18-.09.23-.15.48-.2.73,0-.66.02-1.32.09-1.97ZM263.96,122.63c-.07-.12-.25-.2-.38-.14-2.97,1.24-5.63,3.07-7.31,5.87-1.7,2.82-1.94,6.25-1.54,9.45.01.11.07.19.14.24,0,.2.17.39.41.29,2.02-.88,4.07-1.64,5.85-2.98,1.19-.9,1.98-2.28,2.56-3.62,1.18-2.71,1.8-6.41.27-9.11Z"/>
              <path class="cls-1" d="M262.9,184.57s-.02-.07-.03-.11c.27-.27.52-.55.75-.85.21-.15.41-.31.6-.49-.35.55-.82,1.02-1.32,1.45ZM252.66,184.23s.02.07.03.11c-.27.29-.51.6-.75.91-.22.12-.43.26-.63.42.42-.51.87-1,1.35-1.45ZM266.28,181.52c.03-.14-.06-.31-.2-.36-3.07-.98-6.28-1.3-9.37-.26-3.12,1.05-5.53,3.51-7.29,6.21-.06.09-.07.19-.05.27-.13.16-.12.41.12.48,2.11.64,4.16,1.38,6.38,1.51,1.49.09,2.99-.46,4.3-1.1,2.65-1.3,5.52-3.72,6.1-6.77Z"/>
              <path class="cls-1" d="M241.22,156.5s-.04.05-.05.09c-.33-.02-.66-.01-.99.01-.22-.04-.44-.08-.66-.1.56-.09,1.14-.07,1.71,0ZM247.02,163.29s.04-.05.05-.08c.34,0,.69-.02,1.03-.05.21.07.42.12.64.15-.58.03-1.15.02-1.72-.02ZM237.28,156.12c-.1.06-.17.22-.11.33,1.17,2.55,2.85,4.8,5.33,6.18,2.51,1.39,5.5,1.49,8.27,1.04.09-.02.16-.07.2-.13.18-.01.34-.16.24-.36-.83-1.73-1.55-3.49-2.77-4.99-.82-1.01-2.05-1.65-3.23-2.12-2.39-.95-5.64-1.37-7.93.05Z"/>
              <path class="cls-1" d="M246.03,144.61c1.16.63,2.24,1.39,3.1,2.4-.66-.57-1.4-1.05-2.16-1.49-1-.75-2.08-1.42-3.22-1.95.79.29,1.55.65,2.28,1.05ZM251.94,150.76c-.26-.72-.4-1.49-.67-2.21-.26-.7-.75-1.36-1.19-1.96-.91-1.22-2.2-2.08-3.51-2.82-2.68-1.51-5.89-2.44-8.96-1.83-.16.03-.27.12-.33.23-.16.14-.16.42.01.54,1.02,2.75,2.06,5.77,4.37,7.72,2.3,1.94,5.3,1.73,8.07,1.23.07-.01.13-.03.2-.04.44-.02.87-.07,1.3-.17.04,0,.07.01.11.02.46.1.75-.29.6-.71Z"/>
              <path class="cls-1" d="M262.31,174.06c-1.15.65-2.37,1.17-3.68,1.37.83-.26,1.63-.63,2.41-1.05,1.17-.45,2.3-1.02,3.36-1.7-.66.51-1.37.97-2.09,1.38ZM253.96,175.84c.75.16,1.47.44,2.23.6.74.15,1.55.08,2.29.02,1.52-.13,2.93-.77,4.25-1.49,2.7-1.47,5.18-3.72,6.29-6.65.06-.15.04-.29-.02-.4-.03-.21-.28-.36-.46-.27-2.87-.59-5.99-1.3-8.86-.36-2.86.93-4.26,3.58-5.31,6.2-.03.06-.05.13-.07.19-.22.38-.4.78-.54,1.19-.03.03-.05.06-.08.08-.33.33-.15.79.28.88Z"/>
              <path class="cls-1" d="M268.04,137.98c-.13-.29-.56-.34-.8-.19-2.37,1.48-4.9,2.68-7.11,4.41-.88.69-1.74,1.5-2.4,2.41-1.23,1.37-1.82,3.12-2.04,5.19-.03.26.24.33.42.23,1.1,1.14,2.97,1.11,4.43.96,1.57-.16,3.32-.55,4.63-1.46,1.73-1.2,2.83-3.4,3.23-5.42.38-1.9.46-4.35-.36-6.14Z"/>
              <path class="cls-1" d="M249.35,175.12c-.25-.46-.5-.92-.73-1.38.07-.05.11-.13.08-.24-.49-1.83-1.26-3.32-2.56-4.39-.73-.73-1.61-1.34-2.5-1.84-2.23-1.25-4.67-1.98-7.01-2.98-.24-.1-.62,0-.7.28-.49,1.72-.08,3.92.53,5.58.65,1.76,1.94,3.58,3.67,4.42.44.21.91.36,1.4.47,2.25.84,5.15.3,7.41.65.34.05.59-.27.42-.58Z"/>
              <path class="cls-1" d="M242.39,121.99c-.22-.76-.32-1.55-.36-2.36.09.88.35,1.72.76,2.46.19.63.45,1.24.75,1.81.26.49.65.99,1.09,1.4-1.04-.73-1.84-1.91-2.24-3.31ZM242.18,116.42c.02.07.04.14.05.21.01.18.02.37.03.55,0,.02-.02.04-.02.06-.11.37-.17.74-.21,1.11.02-.64.08-1.29.14-1.93ZM249.08,118.85c-.78-4.21-3.77-5.7-6.87-6.56-.33-.09-.46.51-.17.64-.04.05-.06.12-.07.2-.25,3.41-1.09,7.21.38,10.4.74,1.6,2.14,2.59,3.52,3.11.61.23,1.22.41,1.83.64.34.13.74.22,1.01-.15.67-.92.65-2.49.68-3.66.03-1.55-.03-3.11-.31-4.63Z"/>
            </g>
          </g>
        </g>
      </g>
      <g class="cls-46">
        <g class="cls-30">
          <g class="cls-38">
            <g class="cls-14">
              <path class="cls-1" d="M53.63,212.14c.14,0,.27-.04.39-.13.28-.22.34-.62.12-.9-.06-.07-5.63-7.51-9.36-19.34-2.19-6.94-3.32-14.01-3.38-21.02-.07-8.76,1.57-17.44,4.85-25.82.13-.33-.03-.71-.36-.84-.33-.13-.7.03-.84.36-3.35,8.54-5.01,17.4-4.94,26.33.06,7.14,1.22,14.35,3.45,21.41,3.8,12.03,9.49,19.61,9.54,19.68.13.17.32.25.51.25Z"/>
              <path class="cls-1" d="M56.84,148.85c-.48.9-1.09,1.71-1.85,2.37-.08.07-.17.13-.25.2,1.04-.71,1.68-1.59,2.1-2.57ZM58.21,148.74c.53-1.26.53-2.66.52-4.05-.31,2.33-.56,4.58-2.09,6.35.66-.66,1.21-1.43,1.58-2.3ZM45,154.24c0-.07,0-.14.04-.22.88-2.16,1.48-4.21,3.14-5.92.76-.78,1.68-1.42,2.61-1.99.49-.3,1.03-.53,1.56-.76.83-.55,1.74-.99,2.67-1.38,1.27-.66,2.6-1.21,3.95-1.65.18-.06.39.1.38.29-.14,2.11.17,4.26-.55,6.3-.58,1.63-1.94,2.93-3.36,3.85-2.95,1.9-6.83,2.34-10.26,2.05-.31-.03-.37-.43-.17-.56Z"/>
              <path class="cls-1" d="M31.28,177.66c-.07-.05-.14-.11-.21-.17-.64-.55-1.15-1.23-1.55-1.98.35.82.89,1.55,1.75,2.14ZM29.7,177.34c-1.28-1.48-1.49-3.35-1.74-5.3-.02,1.16-.01,2.33.43,3.38.3.72.76,1.37,1.31,1.92ZM39.26,180.47c-2.86.25-6.1-.12-8.55-1.71-1.19-.76-2.32-1.85-2.8-3.21-.6-1.7-.35-3.49-.46-5.25-.01-.16.17-.29.31-.24,1.13.36,2.23.82,3.29,1.38.78.32,1.53.69,2.23,1.15.44.19.89.38,1.3.64.77.47,1.54,1.01,2.17,1.66,1.39,1.43,1.89,3.14,2.62,4.94.03.07.03.13.03.18.17.1.12.44-.14.47Z"/>
              <path class="cls-1" d="M60.32,196.97c-.42.79-.96,1.51-1.64,2.1-.07.06-.15.12-.22.18.92-.63,1.48-1.4,1.86-2.27ZM61.53,196.87c.47-1.11.47-2.35.46-3.58-.27,2.06-.49,4.05-1.85,5.61.59-.58,1.07-1.26,1.39-2.03ZM49.85,201.73c0-.06,0-.12.03-.19.77-1.91,1.3-3.72,2.78-5.23.67-.69,1.48-1.26,2.3-1.76.44-.27.91-.47,1.38-.67.74-.48,1.54-.87,2.36-1.22,1.12-.59,2.3-1.07,3.49-1.46.16-.05.34.09.33.25-.12,1.87.15,3.77-.49,5.57-.51,1.44-1.71,2.59-2.97,3.4-2.6,1.68-6.04,2.07-9.06,1.81-.28-.02-.33-.38-.15-.49Z"/>
              <path class="cls-1" d="M31.13,143.46s.06-.05.09-.07c-.04-.38-.06-.76-.05-1.14-.07-.25-.12-.5-.16-.75-.07.65,0,1.31.12,1.96ZM39.32,149.63s-.06.05-.09.07c.03.39.03.79.01,1.18.09.23.17.47.22.72,0-.66-.05-1.32-.14-1.97ZM30.41,138.96c.06-.12.24-.2.38-.15,3,1.16,5.7,2.93,7.46,5.68,1.77,2.78,2.1,6.2,1.78,9.41-.01.11-.06.19-.13.24,0,.2-.16.4-.4.3-2.04-.83-4.11-1.53-5.92-2.83-1.21-.86-2.04-2.23-2.66-3.55-1.25-2.68-1.97-6.36-.51-9.1Z"/>
              <path class="cls-1" d="M33.06,200.85s.02-.07.03-.11c-.28-.26-.54-.54-.78-.83-.21-.15-.42-.3-.61-.47.37.54.85,1,1.36,1.41ZM43.3,200.25s-.02.08-.03.11c.27.28.53.58.77.89.22.12.43.25.64.41-.44-.5-.9-.97-1.38-1.41ZM29.6,197.88c-.03-.14.05-.31.19-.36,3.04-1.06,6.24-1.46,9.36-.5,3.15.97,5.61,3.37,7.45,6.02.06.09.07.19.05.27.13.16.14.41-.11.49-2.09.69-4.13,1.49-6.34,1.68-1.48.13-3-.38-4.32-.99-2.69-1.23-5.62-3.58-6.27-6.61Z"/>
              <path class="cls-1" d="M54.02,172.24s.04.05.05.08c.33-.02.66-.03.99-.01.22-.05.44-.09.66-.12-.56-.08-1.14-.04-1.71.04ZM48.4,179.17s-.04-.05-.06-.08c-.34.01-.69,0-1.03-.03-.21.07-.42.13-.64.17.58.01,1.15,0,1.72-.06ZM57.95,171.75c.1.06.17.22.12.33-1.1,2.58-2.72,4.87-5.17,6.31-2.47,1.46-5.46,1.64-8.24,1.26-.09-.01-.16-.06-.21-.12-.18,0-.34-.15-.25-.36.78-1.75,1.46-3.53,2.64-5.06.79-1.03,2-1.7,3.17-2.2,2.37-1.01,5.6-1.51,7.93-.16Z"/>
              <path class="cls-1" d="M48.91,160.47c-1.14.66-2.2,1.45-3.04,2.48.65-.58,1.37-1.08,2.12-1.55.98-.78,2.04-1.47,3.17-2.04-.78.31-1.53.69-2.25,1.1ZM43.15,166.77c.25-.73.36-1.5.61-2.23.24-.71.71-1.38,1.14-1.99.88-1.24,2.15-2.14,3.44-2.91,2.64-1.58,5.83-2.59,8.91-2.06.16.03.27.11.33.22.16.14.17.42,0,.54-.95,2.77-1.91,5.82-4.17,7.83-2.25,1.99-5.25,1.87-8.04,1.44-.07-.01-.13-.02-.2-.03-.44,0-.87-.05-1.3-.14-.04,0-.07.01-.11.02-.45.12-.76-.27-.62-.69Z"/>
              <path class="cls-1" d="M33.39,190.33c1.17.62,2.4,1.11,3.71,1.28-.84-.24-1.64-.59-2.43-.98-1.18-.42-2.33-.96-3.4-1.62.68.5,1.39.94,2.13,1.33ZM41.77,191.89c-.75.18-1.46.48-2.21.66-.73.17-1.55.12-2.29.08-1.52-.09-2.95-.7-4.29-1.38-2.73-1.4-5.28-3.58-6.46-6.48-.06-.15-.05-.29.01-.4.03-.21.27-.37.46-.28,2.86-.66,5.96-1.45,8.85-.59,2.88.85,4.36,3.47,5.47,6.06.03.06.05.13.08.19.23.38.42.77.57,1.18.03.03.05.06.08.08.34.32.17.79-.26.89Z"/>
              <path class="cls-1" d="M26.73,154.41c.13-.29.55-.35.8-.21,2.41,1.41,4.96,2.56,7.22,4.23.9.67,1.78,1.45,2.46,2.35,1.27,1.34,1.9,3.07,2.18,5.14.03.26-.23.33-.42.24-1.07,1.17-2.94,1.19-4.4,1.08-1.57-.12-3.33-.46-4.67-1.34-1.76-1.15-2.92-3.33-3.37-5.33-.43-1.89-.57-4.34.2-6.15Z"/>
              <path class="cls-1" d="M46.37,191.05c.24-.47.48-.93.7-1.4-.07-.04-.11-.12-.08-.23.44-1.85,1.18-3.36,2.45-4.45.71-.75,1.57-1.38,2.45-1.9,2.2-1.3,4.62-2.1,6.93-3.16.24-.11.62-.01.7.26.53,1.71.18,3.92-.39,5.59-.6,1.77-1.85,3.63-3.55,4.51-.43.22-.9.38-1.39.5-2.23.9-5.14.43-7.39.84-.34.06-.6-.25-.44-.57Z"/>
              <path class="cls-1" d="M51.96,137.77c.2-.77.28-1.56.3-2.37-.06.88-.31,1.73-.69,2.48-.17.64-.41,1.25-.7,1.82-.25.5-.62,1.01-1.06,1.43,1.02-.75,1.79-1.96,2.16-3.36ZM52.03,132.19c-.02.07-.03.14-.05.21,0,.18-.01.37-.02.55,0,.02.02.04.02.06.12.36.19.73.24,1.1-.04-.64-.11-1.28-.19-1.92ZM45.19,134.79c.67-4.22,3.63-5.8,6.7-6.73.33-.1.48.5.18.64.04.05.06.12.07.2.34,3.4,1.28,7.18-.12,10.4-.7,1.62-2.07,2.65-3.44,3.2-.6.24-1.21.44-1.81.69-.34.14-.73.24-1.01-.12-.7-.91-.72-2.47-.77-3.64-.07-1.55-.05-3.11.19-4.63Z"/>
            </g>
          </g>
        </g>
      </g>
      <g class="cls-43">
        <g class="cls-6">
          <g class="cls-16">
            <g class="cls-40">
              <g class="cls-30">
                <g class="cls-32">
                  <rect class="cls-7" x="227.05" y="100.21" width="26.04" height="13.8"/>
                </g>
              </g>
            </g>
          </g>
        </g>
      </g>
      <g class="cls-3">
        <g class="cls-18">
          <g class="cls-19">
            <g class="cls-47">
              <g class="cls-30">
                <g class="cls-22">
                  <rect class="cls-42" x="225.78" y="103.51" width="28.18" height="12.97"/>
                </g>
              </g>
            </g>
          </g>
        </g>
      </g>
      <g class="cls-35">
        <g class="cls-23">
          <g class="cls-27">
            <g class="cls-45">
              <g class="cls-30">
                <g class="cls-39">
                  <rect class="cls-42" x="218.13" y="93.16" width="40.17" height="24.9"/>
                </g>
              </g>
            </g>
          </g>
        </g>
      </g>
      <g class="cls-13">
        <g class="cls-41">
          <g class="cls-15">
            <g class="cls-2">
              <g class="cls-30">
                <g class="cls-26">
                  <rect class="cls-42" x="217.98" y="106.59" width="24.13" height="11.7"/>
                </g>
              </g>
            </g>
          </g>
        </g>
      </g>
      <rect class="cls-36" x="227.05" y="100.21" width="26.02" height="13.8"/>
      <rect class="cls-36" x="225.78" y="103.51" width="28.2" height="12.98"/>
      <rect class="cls-36" x="217.98" y="106.59" width="24.15" height="11.7"/>
      <rect class="cls-36" x="79.19" y="86.05" width="137.77" height="139.04"/>
      <rect class="cls-36" x="218.13" y="93.16" width="40.12" height="24.9"/>
      <rect class="cls-36" x="231.42" y="111.51" width="38.89" height="85.1"/>
      <rect class="cls-36" x="25.96" y="127.95" width="36.74" height="84.18"/>
    </g>
  </g>
</svg>